<svg xmlns:xlink="http://www.w3.org/1999/xlink" xmlns:inkscape="http://www.inkscape.org/namespaces/inkscape" xmlns:sodipodi="http://sodipodi.sourceforge.net/DTD/sodipodi-0.dtd" xmlns="http://www.w3.org/2000/svg" xmlns:svg="http://www.w3.org/2000/svg" width="1705.1899" height="423.44" viewBox="0 0 451.16483 112.03517" id="svg215" inkscape:version="1.2.2 (732a01da63, 2022-12-09)" sodipodi:docname="Vynmsa Logotipo 2024 Blanco.svg"><defs id="defs212"/><g inkscape:label="Capa 1" inkscape:groupmode="layer" id="layer1" transform="translate(-4.9002172,-11.164948)"><g id="g82" transform="matrix(0.26458333,0,0,0.26458333,-0.48405355,-0.21742687)"><g id="g20" style="fill:#ffffff"><path class="st0" d="m 872.94,306.04 v -18.25 c 0,0 -819.02,-74.88 -826.35,-74.88 v 5.43 z" id="path4" style="clip-rule:evenodd;fill:#ffffff;fill-rule:evenodd"/><path class="st0" d="M 872.94,278.86 V 261.55 L 46.59,202.06 v 5.43 c 0,0 824.58,71.37 826.35,71.37 z" id="path6" style="clip-rule:evenodd;fill:#ffffff;fill-rule:evenodd"/><polygon class="st0" points="872.94,357.76 872.94,340.49 46.59,234.62 46.59,240.05 " id="polygon8" style="clip-rule:evenodd;fill:#ffffff;fill-rule:evenodd"/><polygon class="st0" points="872.94,314.98 46.59,223.77 46.59,229.19 872.94,331.55 " id="polygon10" style="clip-rule:evenodd;fill:#ffffff;fill-rule:evenodd"/><path class="st1" d="m 872.94,306.04 v -18.25 c 0,0 819.02,-74.88 826.35,-74.88 v 5.43 z" id="path12" style="clip-rule:evenodd;fill:#ffffff;fill-rule:evenodd"/><path class="st1" d="m 872.94,278.86 v -17.31 l 826.35,-59.48 v 5.43 c 0.01,-0.01 -824.58,71.36 -826.35,71.36 z" id="path14" style="clip-rule:evenodd;fill:#ffffff;fill-rule:evenodd"/><polygon class="st1" points="872.94,357.76 872.94,340.49 1699.3,234.62 1699.3,240.05 " id="polygon16" style="clip-rule:evenodd;fill:#ffffff;fill-rule:evenodd"/><polygon class="st1" points="872.94,314.98 1699.3,223.77 1699.3,229.19 872.94,331.55 " id="polygon18" style="clip-rule:evenodd;fill:#ffffff;fill-rule:evenodd"/></g><g id="g66" style="fill:#ffffff"><path class="st2" d="m 122.16,462.09 c -5.45,3.2 -11.64,3.35 -23.8,3.35 H 76.1 V 415.6 h 22.41 c 10.11,0 16.15,0.15 21.39,3.2 3.64,2.19 5.24,5.45 5.24,9.9 0,5.24 -2.19,8.59 -7.78,11.06 v 0.29 c 6.4,1.52 10.47,4.8 10.47,11.78 0,4.88 -1.89,8.16 -5.67,10.26 z M 99.96,424.7 H 88.97 v 11.57 h 11.06 c 8.88,0 12.23,-1.1 12.23,-5.9 0,-5.02 -4.22,-5.67 -12.3,-5.67 z m 2.55,20.3 H 88.97 v 11.28 h 13.68 c 8.95,0 12.16,-0.95 12.16,-5.67 0,-4.96 -4.23,-5.61 -12.3,-5.61 z" id="path22" style="fill:#ffffff"/><path class="st2" d="m 153.49,461.23 c -4.95,-3.86 -5.97,-9.53 -5.97,-17.69 V 415.6 h 12.88 v 27 c 0,4.21 0.66,7.56 2.91,10.04 2.47,2.69 6.84,3.78 11.93,3.78 5.16,0 9.46,-0.95 11.93,-3.71 2.18,-2.26 2.76,-5.45 2.76,-9.61 v -27.5 h 12.66 v 27.94 c 0,8.15 -1.02,13.83 -6.04,17.69 -5.75,4.44 -13.09,5.23 -21.47,5.23 -8.42,0 -15.91,-0.8 -21.59,-5.23 z" id="path24" style="fill:#ffffff"/><path class="st2" d="M 225.21,465.44 V 415.6 h 12.88 v 49.84 z" id="path26" style="fill:#ffffff"/><path class="st2" d="M 261.66,465.44 V 415.6 h 12.87 v 39.44 h 31.73 v 10.4 z" id="path28" style="fill:#ffffff"/><path class="st2" d="m 371.94,460.49 c -6.04,3.86 -13.82,4.95 -23.65,4.95 H 323.84 V 415.6 h 24.45 c 9.83,0 17.61,1.1 23.65,4.88 6.91,4.29 9.09,11.5 9.09,19.94 0.01,8.51 -2.24,15.71 -9.09,20.07 z M 348.3,425.42 h -11.57 v 30.2 h 11.57 c 14.11,0 19.65,-3.71 19.65,-15.07 -0.01,-10.9 -5.39,-15.13 -19.65,-15.13 z" id="path30" style="fill:#ffffff"/><path class="st2" d="M 400.29,465.44 V 415.6 h 12.88 v 49.84 z" id="path32" style="fill:#ffffff"/><path class="st2" d="m 477.85,465.44 -29.1,-33.98 h -0.22 v 33.98 H 436.75 V 415.6 h 14.99 l 28.08,33.91 h 0.29 V 415.6 h 11.71 v 49.84 z" id="path34" style="fill:#ffffff"/><path class="st2" d="m 537.93,466.46 c -7.13,0 -14.04,-1.02 -19.13,-5.16 -5.97,-4.95 -7.71,-12.59 -7.71,-20.81 0,-7.06 2.04,-15.79 9.82,-21.03 6.12,-4.07 13.97,-4.88 22.56,-4.88 6.62,0 13.24,0.36 20.66,0.88 v 10.19 c -6.19,-0.44 -14.11,-0.81 -19.87,-0.81 -14.04,0 -20.01,4.22 -20.01,15.94 0,10.84 4.07,15.86 15.21,15.86 4.66,0 9.75,-0.44 14.77,-1.17 v -8.66 h -14.84 v -9.31 h 26.84 v 25.68 c -8.95,1.83 -18.62,3.28 -28.3,3.28 z" id="path36" style="fill:#ffffff"/><path class="st2" d="m 644.86,466.46 c -7.13,0 -14.04,-1.02 -19.13,-5.16 -5.97,-4.95 -7.71,-12.59 -7.71,-20.81 0,-7.06 2.04,-15.79 9.82,-21.03 6.11,-4.07 13.97,-4.88 22.56,-4.88 6.62,0 13.24,0.36 20.66,0.88 v 10.19 c -6.19,-0.44 -14.11,-0.81 -19.87,-0.81 -14.04,0 -20.01,4.22 -20.01,15.94 0,10.84 4.07,15.86 15.21,15.86 4.66,0 9.75,-0.44 14.77,-1.17 v -8.66 h -14.84 v -9.31 h 26.84 v 25.68 c -8.94,1.83 -18.63,3.28 -28.3,3.28 z" id="path38" style="fill:#ffffff"/><path class="st2" d="m 733.03,465.44 -13.32,-17.17 c -1.17,0.07 -2.41,0.07 -3.57,0.07 h -8.22 v 17.1 H 695.05 V 415.6 h 24.22 c 9.76,0 16.81,0.44 21.61,4 3.64,2.7 5.31,6.55 5.31,12.08 0,5.89 -1.82,9.75 -5.75,12.44 -1.82,1.31 -4.07,2.19 -6.69,2.69 l 14.84,18.63 z m -13.68,-40.31 h -11.43 v 14.11 h 11.57 c 9.68,0 13.61,-1.23 13.61,-7.2 0,-6.47 -5.24,-6.91 -13.75,-6.91 z" id="path40" style="fill:#ffffff"/><path class="st2" d="m 820.83,461.37 c -6.05,4 -13.83,5.09 -23.66,5.09 -9.97,0 -17.68,-1.09 -23.72,-5.16 -6.84,-4.51 -9.16,-11.93 -9.16,-20.81 0,-8.8 2.33,-16.37 9.16,-20.88 6.04,-4 13.83,-5.02 23.65,-5.02 9.97,0 17.68,1.1 23.73,5.02 6.76,4.59 9.16,12.08 9.16,20.88 0,8.87 -2.4,16.29 -9.16,20.88 z m -23.66,-36.74 c -13.53,0 -19.72,3.78 -19.72,15.49 0,11.42 6.04,16.3 19.65,16.3 13.47,0 19.72,-3.85 19.72,-15.57 0.01,-11.42 -6.04,-16.22 -19.65,-16.22 z" id="path42" style="fill:#ffffff"/><path class="st2" d="M 900.7,465.44 887.53,431.1 h -0.29 l -12.73,34.34 H 860.1 L 841.04,415.6 h 14.04 l 12.45,36.24 h 0.36 l 12.73,-36.24 h 14.48 l 12.87,36.24 h 0.37 l 12.22,-36.24 h 13.68 l -19.13,49.84 H 900.7 Z" id="path44" style="fill:#ffffff"/><path class="st2" d="M 965.2,465.44 V 425.5 h -20.15 v -9.9 h 53.26 v 9.9 h -20.23 v 39.95 H 965.2 Z" id="path46" style="fill:#ffffff"/><path class="st2" d="m 1058.1,465.44 v -20.51 h -29.32 v 20.51 h -12.87 V 415.6 h 12.87 v 19.43 h 29.32 V 415.6 h 12.88 v 49.84 z" id="path48" style="fill:#ffffff"/><path class="st2" d="M 1142.9,465.44 V 425.5 h -20.15 v -9.9 h 53.26 v 9.9 h -20.23 v 39.95 h -12.88 z" id="path50" style="fill:#ffffff"/><path class="st2" d="m 1242.94,461.37 c -6.05,4 -13.83,5.09 -23.66,5.09 -9.97,0 -17.68,-1.09 -23.72,-5.16 -6.84,-4.51 -9.16,-11.93 -9.16,-20.81 0,-8.8 2.33,-16.37 9.16,-20.88 6.04,-4 13.83,-5.02 23.65,-5.02 9.97,0 17.68,1.1 23.73,5.02 6.76,4.59 9.16,12.08 9.16,20.88 0,8.87 -2.4,16.29 -9.16,20.88 z m -23.66,-36.74 c -13.53,0 -19.72,3.78 -19.72,15.49 0,11.42 6.04,16.3 19.65,16.3 13.47,0 19.72,-3.85 19.72,-15.57 0,-11.42 -6.04,-16.22 -19.65,-16.22 z" id="path52" style="fill:#ffffff"/><path class="st2" d="m 1295.37,466.46 c -7.13,0 -14.04,-1.02 -19.13,-5.16 -5.97,-4.95 -7.71,-12.59 -7.71,-20.81 0,-7.06 2.04,-15.79 9.82,-21.03 6.11,-4.07 13.97,-4.88 22.56,-4.88 6.62,0 13.24,0.36 20.66,0.88 v 10.19 c -6.19,-0.44 -14.11,-0.81 -19.87,-0.81 -14.04,0 -20.01,4.22 -20.01,15.94 0,10.84 4.07,15.86 15.21,15.86 4.66,0 9.75,-0.44 14.77,-1.17 v -8.66 h -14.84 v -9.31 h 26.84 v 25.68 c -8.94,1.83 -18.62,3.28 -28.3,3.28 z" id="path54" style="fill:#ffffff"/><path class="st2" d="M 1345.56,465.44 V 415.6 h 41.98 v 9.9 h -29.11 v 9.68 h 26.92 v 9.61 h -26.92 v 10.69 h 30.34 v 9.97 h -43.21 z" id="path56" style="fill:#ffffff"/><path class="st2" d="M 1422.59,465.44 V 425.5 h -20.15 v -9.9 h 53.26 v 9.9 h -20.23 v 39.95 h -12.88 z" id="path58" style="fill:#ffffff"/><path class="st2" d="m 1515.49,465.44 v -20.51 h -29.32 v 20.51 h -12.88 V 415.6 h 12.88 v 19.43 h 29.32 V 415.6 h 12.88 v 49.84 z" id="path60" style="fill:#ffffff"/><path class="st2" d="M 1551.93,465.44 V 415.6 h 41.98 v 9.9 h -29.11 v 9.68 h 26.92 v 9.61 h -26.92 v 10.69 h 30.34 v 9.97 h -43.21 z" id="path62" style="fill:#ffffff"/><path class="st2" d="m 1654.21,465.44 -13.32,-17.17 c -1.17,0.07 -2.41,0.07 -3.57,0.07 h -8.22 v 17.1 h -12.88 V 415.6 h 24.23 c 9.76,0 16.81,0.44 21.61,4 3.64,2.7 5.31,6.55 5.31,12.08 0,5.89 -1.82,9.75 -5.75,12.44 -1.82,1.31 -4.07,2.19 -6.69,2.69 l 14.85,18.63 z m -13.68,-40.31 h -11.43 v 14.11 h 11.57 c 9.68,0 13.61,-1.23 13.61,-7.2 0,-6.47 -5.24,-6.91 -13.75,-6.91 z" id="path64" style="fill:#ffffff"/></g><g id="g80" style="fill:#ffffff"><path class="st3" d="M 20.35,43.98 H 84.8 l 75.67,94.29 77.4,-94.29 H 302.9 L 196.72,168.77 h -73.94 z" id="path68" style="fill:#ffffff"/><path class="st3" d="M 400.17,125.55 290.55,43.98 h 74.52 l 64.74,51.64 64.16,-51.64 h 73.08 l -108.18,81.57 v 43.22 h -58.7 z" id="path70" style="fill:#ffffff"/><path class="st3" d="m 569.37,43.98 h 92.93 l 116.24,94.85 -1.44,-94.85 h 55.24 v 124.79 h -93.8 l -114.5,-93.92 1.44,93.92 h -56.11 z" id="path72" style="fill:#ffffff"/><path class="st3" d="m 857.99,43.98 h 92.65 l 69.92,82.88 69.63,-82.88 h 92.07 v 124.79 h -56.97 l 2.87,-96.35 -85.16,96.35 h -46.61 l -83.73,-96.35 1.73,96.35 H 858 V 43.98 Z" id="path74" style="fill:#ffffff"/><path class="st3" d="m 1254.23,128.91 c 0.58,8.61 2.01,10.67 8.92,12.35 4.31,1.12 20.71,1.87 39.13,1.87 67.62,0 75.67,-1.31 75.67,-11.6 0,-5.05 -3.73,-8.79 -9.78,-10.1 -6.33,-1.31 -6.33,-1.31 -36.54,-1.5 h -52.94 c -35.39,0 -50.06,-1.31 -62.43,-5.43 -13.81,-4.68 -20.14,-14.59 -20.14,-31.62 0,-22.45 9.78,-31.99 37.4,-36.3 15.53,-2.62 37.98,-3.56 79.99,-3.56 67.33,0 82.86,1.12 96.67,6.92 13.24,5.8 17.55,13.47 17.55,32.18 h -56.97 c 0,-10.85 -5.75,-12.35 -43.44,-12.35 -18.71,0 -43.73,0.37 -52.95,0.75 -15.53,0.75 -20.71,3.37 -20.71,10.47 0,5.24 4.03,8.61 12.37,9.92 3.46,0.56 4.6,0.75 23.59,0.94 H 1344 c 5.18,0 31.07,0.56 40.85,0.94 36.54,1.12 50.93,11.6 50.93,36.67 0,23.01 -10.36,33.11 -38.56,37.04 -14.39,2.06 -42.87,3.18 -84.59,3.18 -66.47,0 -81.14,-0.94 -98.12,-6.55 -11.79,-3.74 -17.84,-13.28 -17.84,-28.06 0,-1.12 0,-3.56 0.28,-6.18 h 57.28 z" id="path76" style="fill:#ffffff"/><path class="st3" d="m 1542.26,43.98 h 78.26 l 105.02,124.79 h -63.88 l -18.99,-22.26 h -123.72 l -18.41,22.26 h -66.17 z m 79.98,76.52 -41.43,-49.76 -40.86,49.76 z" id="path78" style="fill:#ffffff"/></g></g></g></svg>