<svg xmlns:xlink="http://www.w3.org/1999/xlink" xmlns="http://www.w3.org/2000/svg" id="Layer_1" data-name="Layer 1" viewBox="0 0 41.29 42.23" width="50"  height="50" ><title>a la medida</title><path d="M8.46,41.12a0.43,0.43,0,0,1-.39-0.25L6.9,38.35a0.43,0.43,0,0,1,.21-0.58l17.38-8.11a0.43,0.43,0,0,1,.57.21l1.17,2.51a0.44,0.44,0,0,1,0,.33A0.43,0.43,0,0,1,26,33L8.64,41.08a0.43,0.43,0,0,1-.18,0m-0.6-2.74,0.81,1.73,16.6-7.74-0.81-1.73Z" fill="#1F1F1F"></path><path d="M8.46,41.12a0.43,0.43,0,0,1-.39-0.25L6.9,38.35a0.43,0.43,0,0,1,.21-0.58l17.38-8.11a0.43,0.43,0,0,1,.57.21l1.17,2.51a0.44,0.44,0,0,1,0,.33A0.43,0.43,0,0,1,26,33L8.64,41.08A0.43,0.43,0,0,1,8.46,41.12Zm-0.6-2.74,0.81,1.73,16.6-7.74-0.81-1.73Z" fill="none" stroke="#1F1F1F" stroke-miterlimit="10" stroke-width="0.5px"></path><path d="M25.84,33a0.43,0.43,0,0,1-.3-0.74l2.22-2.11-3,.34a0.43,0.43,0,0,1-.1-0.86l4.32-.48a0.43,0.43,0,0,1,.35.74l-3.14,3a0.43,0.43,0,0,1-.3.12" fill="#1F1F1F"></path><path d="M25.84,33a0.43,0.43,0,0,1-.3-0.74l2.22-2.11-3,.34a0.43,0.43,0,0,1-.1-0.86l4.32-.48a0.43,0.43,0,0,1,.35.74l-3.14,3A0.43,0.43,0,0,1,25.84,33Z" fill="none" stroke="#1F1F1F" stroke-miterlimit="10" stroke-width="0.5px"></path><path d="M6.47,42a1.07,1.07,0,0,1-1-.62L4.86,40a1.07,1.07,0,0,1,.52-1.42l1.72-.8a0.43,0.43,0,0,1,.57.21L8.85,40.5a0.43,0.43,0,0,1-.21.57l-1.72.8a1.05,1.05,0,0,1-.45.1m0.61-3.24-1.33.62a0.21,0.21,0,0,0-.11.12,0.21,0.21,0,0,0,0,.15L6.28,41a0.21,0.21,0,0,0,.27.1l1.33-.62Z" fill="#1F1F1F"></path><path d="M6.47,42a1.07,1.07,0,0,1-1-.62L4.86,40a1.07,1.07,0,0,1,.52-1.42l1.72-.8a0.43,0.43,0,0,1,.57.21L8.85,40.5a0.43,0.43,0,0,1-.21.57l-1.72.8A1.05,1.05,0,0,1,6.47,42Zm0.61-3.24-1.33.62a0.21,0.21,0,0,0-.11.12,0.21,0.21,0,0,0,0,.15L6.28,41a0.21,0.21,0,0,0,.27.1l1.33-.62Z" fill="none" stroke="#1F1F1F" stroke-miterlimit="10" stroke-width="0.5px"></path><path d="M29,30a0.43,0.43,0,0,1-.18-0.82l0.65-.3a0.43,0.43,0,1,1,.37.78l-0.65.3A0.43,0.43,0,0,1,29,30" fill="#1F1F1F"></path><path d="M29,30a0.43,0.43,0,0,1-.18-0.82l0.65-.3a0.43,0.43,0,1,1,.37.78l-0.65.3A0.43,0.43,0,0,1,29,30Z" fill="none" stroke="#1F1F1F" stroke-miterlimit="10" stroke-width="0.5px"></path><path d="M40.61,35.76H24.34a0.43,0.43,0,0,1,0-.86H40.17V5.53H6.45a0.43,0.43,0,1,1,0-.86H40.61A0.43,0.43,0,0,1,41,5.1V35.33a0.43,0.43,0,0,1-.43.43" fill="#1F1F1F"></path><path d="M40.61,35.76H24.34a0.43,0.43,0,0,1,0-.86H40.17V5.53H6.45a0.43,0.43,0,1,1,0-.86H40.61A0.43,0.43,0,0,1,41,5.1V35.33A0.43,0.43,0,0,1,40.61,35.76Z" fill="none" stroke="#1F1F1F" stroke-miterlimit="10" stroke-width="0.5px"></path><path d="M9,35.76H4.69A4.44,4.44,0,0,1,.25,31.32a3.64,3.64,0,0,1,3.64-3.64,3,3,0,0,1,3,3A2.48,2.48,0,0,1,4.4,33.16a2.07,2.07,0,0,1-2.07-2.07,0.43,0.43,0,0,1,.86,0A1.21,1.21,0,0,0,4.4,32.3,1.62,1.62,0,0,0,6,30.68a2.13,2.13,0,0,0-2.13-2.13,2.77,2.77,0,0,0-2.77,2.77,3.58,3.58,0,0,0,3.57,3.57H9a0.43,0.43,0,0,1,0,.86" fill="#1F1F1F"></path><path d="M9,35.76H4.69A4.44,4.44,0,0,1,.25,31.32a3.64,3.64,0,0,1,3.64-3.64,3,3,0,0,1,3,3A2.48,2.48,0,0,1,4.4,33.16a2.07,2.07,0,0,1-2.07-2.07,0.43,0.43,0,0,1,.86,0A1.21,1.21,0,0,0,4.4,32.3,1.62,1.62,0,0,0,6,30.68a2.13,2.13,0,0,0-2.13-2.13,2.77,2.77,0,0,0-2.77,2.77,3.58,3.58,0,0,0,3.57,3.57H9A0.43,0.43,0,0,1,9,35.76Z" fill="none" stroke="#1F1F1F" stroke-miterlimit="10" stroke-width="0.5px"></path><path d="M0.68,31.76a0.43,0.43,0,0,1-.43-0.43V3.89A3.64,3.64,0,0,1,3.89.25a3,3,0,0,1,3,3V30.68a0.43,0.43,0,0,1-.86,0V3.24A2.13,2.13,0,0,0,3.89,1.11,2.77,2.77,0,0,0,1.11,3.89V31.32a0.43,0.43,0,0,1-.43.43" fill="#1F1F1F"></path><path d="M0.68,31.76a0.43,0.43,0,0,1-.43-0.43V3.89A3.64,3.64,0,0,1,3.89.25a3,3,0,0,1,3,3V30.68a0.43,0.43,0,0,1-.86,0V3.24A2.13,2.13,0,0,0,3.89,1.11,2.77,2.77,0,0,0,1.11,3.89V31.32A0.43,0.43,0,0,1,.68,31.76Z" fill="none" stroke="#1F1F1F" stroke-miterlimit="10" stroke-width="0.5px"></path><path d="M2.78,14.67a0.43,0.43,0,0,1-.43-0.43V4.7a0.43,0.43,0,1,1,.86,0v9.54a0.43,0.43,0,0,1-.43.43" fill="#1F1F1F"></path><path d="M2.78,14.67a0.43,0.43,0,0,1-.43-0.43V4.7a0.43,0.43,0,1,1,.86,0v9.54A0.43,0.43,0,0,1,2.78,14.67Z" fill="none" stroke="#1F1F1F" stroke-miterlimit="10" stroke-width="0.5px"></path><path d="M2.78,17.62a0.43,0.43,0,0,1-.43-0.43v-1a0.43,0.43,0,1,1,.86,0v1a0.43,0.43,0,0,1-.43.43" fill="#1F1F1F"></path><path d="M2.78,17.62a0.43,0.43,0,0,1-.43-0.43v-1a0.43,0.43,0,1,1,.86,0v1A0.43,0.43,0,0,1,2.78,17.62Z" fill="none" stroke="#1F1F1F" stroke-miterlimit="10" stroke-width="0.5px"></path><path d="M34.75,29.71H31.58a0.43,0.43,0,0,1,0-.86h2.74V28a0.43,0.43,0,1,1,.86,0v1.28a0.43,0.43,0,0,1-.43.43" fill="#1F1F1F"></path><path d="M34.75,29.71H31.58a0.43,0.43,0,0,1,0-.86h2.74V28a0.43,0.43,0,1,1,.86,0v1.28A0.43,0.43,0,0,1,34.75,29.71Z" fill="none" stroke="#1F1F1F" stroke-miterlimit="10" stroke-width="0.5px"></path><path d="M34.75,25.35a0.43,0.43,0,0,1-.43-0.43V11.43H14V23.67a0.43,0.43,0,1,1-.86,0V11a0.43,0.43,0,0,1,.43-0.43H34.75a0.43,0.43,0,0,1,.43.43V24.92a0.43,0.43,0,0,1-.43.43" fill="#1F1F1F"></path><path d="M34.75,25.35a0.43,0.43,0,0,1-.43-0.43V11.43H14V23.67a0.43,0.43,0,1,1-.86,0V11a0.43,0.43,0,0,1,.43-0.43H34.75a0.43,0.43,0,0,1,.43.43V24.92A0.43,0.43,0,0,1,34.75,25.35Z" fill="none" stroke="#1F1F1F" stroke-miterlimit="10" stroke-width="0.5px"></path><path d="M25.41,22.59H22.94a0.43,0.43,0,0,1-.43-0.43V11a0.43,0.43,0,0,1,.87,0V21.73h2a0.43,0.43,0,0,1,0,.86" fill="#1F1F1F"></path><path d="M25.41,22.59H22.94a0.43,0.43,0,0,1-.43-0.43V11a0.43,0.43,0,0,1,.87,0V21.73h2A0.43,0.43,0,0,1,25.41,22.59Z" fill="none" stroke="#1F1F1F" stroke-miterlimit="10" stroke-width="0.5px"></path><path d="M34.75,22.59H28.41a0.43,0.43,0,0,1,0-.86h6.34a0.43,0.43,0,0,1,0,.86" fill="#1F1F1F"></path><path d="M34.75,22.59H28.41a0.43,0.43,0,0,1,0-.86h6.34A0.43,0.43,0,0,1,34.75,22.59Z" fill="none" stroke="#1F1F1F" stroke-miterlimit="10" stroke-width="0.5px"></path><path d="M22.94,20.78H21.62a0.43,0.43,0,0,1,0-.86h1.32a0.43,0.43,0,0,1,0,.86" fill="#1F1F1F"></path><path d="M22.94,20.78H21.62a0.43,0.43,0,0,1,0-.86h1.32A0.43,0.43,0,0,1,22.94,20.78Z" fill="none" stroke="#1F1F1F" stroke-miterlimit="10" stroke-width="0.5px"></path><path d="M18.86,20.78H13.59a0.43,0.43,0,1,1,0-.86h5.27a0.43,0.43,0,0,1,0,.86" fill="#1F1F1F"></path><path d="M18.86,20.78H13.59a0.43,0.43,0,1,1,0-.86h5.27A0.43,0.43,0,0,1,18.86,20.78Z" fill="none" stroke="#1F1F1F" stroke-miterlimit="10" stroke-width="0.5px"></path><path d="M17.79,25.68a0.43,0.43,0,0,1-.43-0.43v-4.9a0.43,0.43,0,1,1,.86,0v4.9a0.43,0.43,0,0,1-.43.43" fill="#1F1F1F"></path><path d="M17.79,25.68a0.43,0.43,0,0,1-.43-0.43v-4.9a0.43,0.43,0,1,1,.86,0v4.9A0.43,0.43,0,0,1,17.79,25.68Z" fill="none" stroke="#1F1F1F" stroke-miterlimit="10" stroke-width="0.5px"></path><path d="M13.59,25.66a0.43,0.43,0,0,1-.31-0.74,0.45,0.45,0,0,1,.61,0,0.43,0.43,0,0,1-.3.74" fill="#1F1F1F"></path><path d="M13.59,25.66a0.43,0.43,0,0,1-.31-0.74,0.45,0.45,0,0,1,.61,0A0.43,0.43,0,0,1,13.59,25.66Z" fill="none" stroke="#1F1F1F" stroke-miterlimit="10" stroke-width="0.5px"></path><path d="M13.59,27.65a0.44,0.44,0,0,1-.31-0.13,0.43,0.43,0,0,1,0-.61,0.45,0.45,0,0,1,.61,0,0.43,0.43,0,0,1-.3.74" fill="#1F1F1F"></path><path d="M13.59,27.65a0.44,0.44,0,0,1-.31-0.13,0.43,0.43,0,0,1,0-.61,0.45,0.45,0,0,1,.61,0A0.43,0.43,0,0,1,13.59,27.65Z" fill="none" stroke="#1F1F1F" stroke-miterlimit="10" stroke-width="0.5px"></path><path d="M13.59,29.71a0.43,0.43,0,0,1-.43-0.43A0.43,0.43,0,0,1,13.28,29a0.45,0.45,0,0,1,.61,0,0.43,0.43,0,0,1,0,.61,0.43,0.43,0,0,1-.3.13" fill="#1F1F1F"></path><path d="M13.59,29.71a0.43,0.43,0,0,1-.43-0.43A0.43,0.43,0,0,1,13.28,29a0.45,0.45,0,0,1,.61,0,0.43,0.43,0,0,1,0,.61A0.43,0.43,0,0,1,13.59,29.71Z" fill="none" stroke="#1F1F1F" stroke-miterlimit="10" stroke-width="0.5px"></path><path d="M17.81,29.73a0.43,0.43,0,0,1-.43-0.43A0.43,0.43,0,0,1,17.51,29a0.45,0.45,0,0,1,.61,0,0.43,0.43,0,0,1,0,.61,0.43,0.43,0,0,1-.3.13" fill="#1F1F1F"></path><path d="M17.81,29.73a0.43,0.43,0,0,1-.43-0.43A0.43,0.43,0,0,1,17.51,29a0.45,0.45,0,0,1,.61,0,0.43,0.43,0,0,1,0,.61A0.43,0.43,0,0,1,17.81,29.73Z" fill="none" stroke="#1F1F1F" stroke-miterlimit="10" stroke-width="0.5px"></path><path d="M15.7,29.73A0.43,0.43,0,0,1,15.39,29,0.45,0.45,0,0,1,16,29a0.43,0.43,0,0,1,.13.31,0.43,0.43,0,0,1-.43.43" fill="#1F1F1F"></path><path d="M15.7,29.73A0.43,0.43,0,0,1,15.39,29,0.45,0.45,0,0,1,16,29a0.43,0.43,0,0,1,.13.31A0.43,0.43,0,0,1,15.7,29.73Z" fill="none" stroke="#1F1F1F" stroke-miterlimit="10" stroke-width="0.5px"></path><path d="M19.75,29.73A0.43,0.43,0,0,1,19.44,29a0.45,0.45,0,0,1,.61,0,0.43,0.43,0,0,1,0,.61,0.44,0.44,0,0,1-.3.13" fill="#1F1F1F"></path><path d="M19.75,29.73A0.43,0.43,0,0,1,19.44,29a0.45,0.45,0,0,1,.61,0,0.43,0.43,0,0,1,0,.61A0.44,0.44,0,0,1,19.75,29.73Z" fill="none" stroke="#1F1F1F" stroke-miterlimit="10" stroke-width="0.5px"></path><path d="M21.69,29.71A0.43,0.43,0,0,1,21.39,29,0.45,0.45,0,0,1,22,29a0.43,0.43,0,0,1,0,.61,0.44,0.44,0,0,1-.31.13" fill="#1F1F1F"></path><path d="M21.69,29.71A0.43,0.43,0,0,1,21.39,29,0.45,0.45,0,0,1,22,29a0.43,0.43,0,0,1,0,.61A0.44,0.44,0,0,1,21.69,29.71Z" fill="none" stroke="#1F1F1F" stroke-miterlimit="10" stroke-width="0.5px"></path></svg>