<svg xmlns:xlink="http://www.w3.org/1999/xlink" xmlns="http://www.w3.org/2000/svg" id="Layer_1" data-name="Layer 1" viewBox="0 0 47.57 37.23" width="50"  height="50" ><title>construccion</title><path d="M2.12,32.06H0.06V26.89a1,1,0,0,1,1-1H3.16v-3.1c0-7.78,4.49-14.32,12-17.5a1,1,0,0,1,1.44,1v7.24H14.53V7.83A16.51,16.51,0,0,0,5.23,22.75v4.14a1,1,0,0,1-1,1H2.12v4.14Z" transform="translate(-0.06 -3.1)" fill="#1D1D1B"></path><path d="M23.84,40.33C13,40.33,3.16,36.39,3.16,32.06V30H5.23v2.07c0,2.13,7.25,6.2,18.62,6.2s18.61-4.07,18.61-6.2V30h2.07v2.07c0,4.33-9.86,8.27-20.68,8.27" transform="translate(-0.06 -3.1)" fill="#1D1D1B"></path><path d="M23.84,33.09c-7,0-12.76-.78-15.92-2.15L8.74,29c2.87,1.24,8.52,2,15.1,2s12.23-.74,15.1-2l0.82,1.9c-3.17,1.37-9,2.15-15.92,2.15" transform="translate(-0.06 -3.1)" fill="#1D1D1B"></path><path d="M29,15.51H26.94V5.17H20.74V15.51H18.67V4.13a1,1,0,0,1,1-1H28a1,1,0,0,1,1,1V15.51Z" transform="translate(-0.06 -3.1)" fill="#1D1D1B"></path><path d="M47.63,32.06H45.56V27.92H43.49a1,1,0,0,1-1-1V22.75A16.51,16.51,0,0,0,33.15,7.83v5.61H31.08V6.2a1,1,0,0,1,1.44-1c7.52,3.18,12,9.72,12,17.5v3.1h2.07a1,1,0,0,1,1,1v5.17Z" transform="translate(-0.06 -3.1)" fill="#1D1D1B"></path></svg>