<svg xmlns:xlink="http://www.w3.org/1999/xlink" xmlns="http://www.w3.org/2000/svg" id="Layer_1" data-name="Layer 1" viewBox="0 0 55.39 37.29" width="55.39"  height="37.29" ><title>desarrollo</title><path d="M25.15,21.71a1,1,0,0,1-.43-0.1,1,1,0,0,1-.53-0.86V13.41a1,1,0,0,1,1.92,0v5.42L39.7,8.63a1,1,0,0,1,1.15,1.54L25.73,21.52a1,1,0,0,1-.58.19" fill="#241916"></path><path d="M40.28,21.71a1,1,0,0,1-.42-0.09,1,1,0,0,1-.55-0.87V13.41a1,1,0,0,1,1.92,0v5.34L53.83,8.65a1,1,0,0,1,1.2,1.5L40.88,21.5a1,1,0,0,1-.6.21" fill="#241916"></path><path d="M54.43,37.29H1.12a1,1,0,0,1-1-1V25.42a1,1,0,0,1,.43-0.8l24-16a1,1,0,0,1,1.07,1.6L2.08,25.93v9.43H53.47v-22a1,1,0,0,1,1.92,0V36.32a1,1,0,0,1-1,1" fill="#241916"></path><path d="M1,22.52H0.9a1,1,0,0,1-.89-1L1.43,0.89a1,1,0,0,1,1-.89H7.46a1,1,0,0,1,1,.89L9.48,16.12a1,1,0,0,1-.89,1,1,1,0,0,1-1-.89l-1-14.33H3.28L1.92,21.62a1,1,0,0,1-1,.89" fill="#241916"></path><path d="M50.46,25.88H16a1,1,0,0,0-1,1v5.07a1,1,0,0,0,1,1H50.46a1,1,0,0,0,1-1V26.84a1,1,0,0,0-1-1M32.95,31H25.12V27.81h7.83V31ZM17,27.81h6.52V31H17V27.81ZM49.5,31h-15V27.81h15V31Z" fill="#241916"></path><path d="M42.64,32.59a0.8,0.8,0,0,1-.8-0.8V27a0.8,0.8,0,1,1,1.6,0v4.8a0.8,0.8,0,0,1-.8.8" fill="#241916"></path></svg>