<svg xmlns:xlink="http://www.w3.org/1999/xlink" xmlns="http://www.w3.org/2000/svg" id="Layer_1" data-name="Layer 1" viewBox="0 0 58.57 42.32" width="58.57"  height="42.32" ><title>conserjeria</title><path d="M38.69,30.24a0.93,0.93,0,0,1,.59.21l3.8,3.07a0.94,0.94,0,0,1-.59,1.67A0.93,0.93,0,0,1,41.89,35l-3.8-3.07a0.94,0.94,0,0,1,.59-1.67m0-1.5a2.44,2.44,0,0,0-1.54,4.34l3.8,3.07A2.44,2.44,0,0,0,44,32.35l-3.8-3.07a2.43,2.43,0,0,0-1.53-.54" fill="#1D1D1B"></path><path d="M41.76,26.44h0a0.93,0.93,0,0,1,.59.21l1.9,1.54a0.94,0.94,0,0,1-.59,1.67,0.93,0.93,0,0,1-.59-0.21l-1.9-1.54a0.94,0.94,0,0,1,.59-1.67m0-1.5a2.44,2.44,0,0,0-1.54,4.34l1.9,1.54A2.44,2.44,0,1,0,45.19,27l-1.9-1.54a2.43,2.43,0,0,0-1.53-.54" fill="#1D1D1B"></path><path d="M32.55,37.83a0.93,0.93,0,0,1,.59.21l0.95,0.77a0.94,0.94,0,1,1-1.18,1.46L32,39.5a0.94,0.94,0,0,1,.59-1.67m0-1.5A2.44,2.44,0,0,0,31,40.67L32,41.43A2.44,2.44,0,0,0,35,37.64l-0.95-.77a2.43,2.43,0,0,0-1.53-.54" fill="#1D1D1B"></path><path d="M35.62,34a0.93,0.93,0,0,1,.59.21l2.85,2.3A0.94,0.94,0,1,1,37.87,38L35,35.7A0.94,0.94,0,0,1,35.62,34m0-1.5a2.44,2.44,0,0,0-1.54,4.34l2.85,2.3A2.44,2.44,0,1,0,40,35.38l-2.85-2.3a2.43,2.43,0,0,0-1.53-.54" fill="#1D1D1B"></path><path d="M45.76,27.68l1.78-1.28a2.18,2.18,0,0,0,.88-2.12,2.18,2.18,0,0,1,.88-2.12l1.13-.82" fill="none" stroke="#1D1D1B" stroke-linecap="round" stroke-linejoin="round" stroke-width="1.5px"></path><path d="M22,21l-10,7.2a2.5,2.5,0,0,0-.86,3.1,2.42,2.42,0,0,0,3.58.9l-1.86,1.34a2.5,2.5,0,0,0-.86,3.1,2.42,2.42,0,0,0,3.58.9l2-1.41a2.42,2.42,0,0,0-.28,3.68,2.51,2.51,0,0,0,3.21.16l3.82-2.75A2.42,2.42,0,0,0,24,40.9a2.5,2.5,0,0,0,3.21.16L30,39" fill="none" stroke="#1D1D1B" stroke-linecap="round" stroke-linejoin="round" stroke-width="1.5px"></path><path d="M40.51,7.65A4.37,4.37,0,0,1,35.93,8a4.37,4.37,0,0,0-4.58.32L29.82,9.4" fill="none" stroke="#1D1D1B" stroke-linecap="round" stroke-linejoin="round" stroke-width="1.5px"></path><line x1="24.25" y1="37.22" x2="28.44" y2="34.2" fill="none" stroke="#1D1D1B" stroke-linecap="round" stroke-linejoin="round" stroke-width="1.5px"></line><line x1="17.51" y1="36.12" x2="27.31" y2="29.07" fill="none" stroke="#1D1D1B" stroke-linecap="round" stroke-linejoin="round" stroke-width="1.5px"></line><line x1="14.68" y1="32.2" x2="24.48" y2="25.15" fill="none" stroke="#1D1D1B" stroke-linecap="round" stroke-linejoin="round" stroke-width="1.5px"></line><line x1="21.66" y1="21.23" x2="24.38" y2="19.27" fill="none" stroke="#1D1D1B" stroke-linecap="round" stroke-linejoin="round" stroke-width="1.5px"></line><polyline points="45.24 1.33 39.33 5.52 51.91 23.25 57.82 19.06" fill="none" stroke="#1D1D1B" stroke-linecap="round" stroke-linejoin="round" stroke-width="1.5px"></polyline><line x1="53.76" y1="17.5" x2="51.79" y2="18.9" fill="none" stroke="#1D1D1B" stroke-linecap="round" stroke-linejoin="round" stroke-width="1.5px"></line><path d="M12.53,27.36l-1.65-1.22A2.18,2.18,0,0,1,10,24a2.18,2.18,0,0,0-.85-2.13L7.34,20.54" fill="none" stroke="#1D1D1B" stroke-linecap="round" stroke-linejoin="round" stroke-width="1.5px"></path><path d="M18.18,7.49a4.37,4.37,0,0,0,4.58.39,4.37,4.37,0,0,1,4.58.39l2,1.47,12,8.92a1.25,1.25,0,0,1,0,2L40.92,21a3.57,3.57,0,0,1-4.39.11" fill="none" stroke="#1D1D1B" stroke-linecap="round" stroke-linejoin="round" stroke-width="1.5px"></path><path d="M36.83,21.33L31,17l-0.24.18a9.48,9.48,0,0,1-11,.3" fill="none" stroke="#1D1D1B" stroke-linecap="round" stroke-linejoin="round" stroke-width="1.5px"></path><polyline points="13.8 0.75 19.6 5.1 6.54 22.48 0.75 18.13" fill="none" stroke="#1D1D1B" stroke-linecap="round" stroke-linejoin="round" stroke-width="1.5px"></polyline><line x1="4.86" y1="16.69" x2="6.79" y2="18.14" fill="none" stroke="#1D1D1B" stroke-linecap="round" stroke-linejoin="round" stroke-width="1.5px"></line></svg>