<svg xmlns:xlink="http://www.w3.org/1999/xlink" xmlns="http://www.w3.org/2000/svg" id="Layer_1" data-name="Layer 1" viewBox="0 0 44.46 37.97" width="50"  height="50" ><title>managment</title><path d="M14,4.35V2.81A2.13,2.13,0,0,1,16.15.69H28.31a2.12,2.12,0,0,1,2.12,2.13V4.35" fill="none" stroke="#1D1D1B" stroke-linecap="round" stroke-linejoin="round" stroke-width="1.37px"></path><path d="M26.64,26.11a77,77,0,0,1-8.84,0" fill="none" stroke="#1D1D1B" stroke-linecap="round" stroke-linejoin="round" stroke-width="1.37px"></path><path d="M8.58,25l-1.81-.35L0.69,23.42V7.64A1.76,1.76,0,0,1,2.44,5.88H42a1.76,1.76,0,0,1,1.76,1.76V23.42l-6.08,1.25L35.87,25" fill="none" stroke="#1D1D1B" stroke-linecap="round" stroke-linejoin="round" stroke-width="1.37px"></path><path d="M3.22,26.24v9.35a1.69,1.69,0,0,0,1.69,1.69H39.54a1.69,1.69,0,0,0,1.69-1.69V26.24" fill="none" stroke="#1D1D1B" stroke-linecap="round" stroke-linejoin="round" stroke-width="1.37px"></path><rect x="10.51" y="21.22" width="5.37" height="8.98" rx="2.25" ry="2.25" fill="none" stroke="#1D1D1B" stroke-linecap="round" stroke-linejoin="round" stroke-width="1.37px"></rect><rect x="28.57" y="21.22" width="5.37" height="8.98" rx="2.25" ry="2.25" fill="none" stroke="#1D1D1B" stroke-linecap="round" stroke-linejoin="round" stroke-width="1.37px"></rect></svg>